<?xml version="1.0" encoding="utf-8"?>
<!-- Generator: Adobe Illustrator 16.0.0, SVG Export Plug-In . SVG Version: 6.00 Build 0)  -->
<!DOCTYPE svg PUBLIC "-//W3C//DTD SVG 1.1//EN" "http://www.w3.org/Graphics/SVG/1.1/DTD/svg11.dtd">
<svg version="1.1" id="Layer_1" xmlns="http://www.w3.org/2000/svg" xmlns:xlink="http://www.w3.org/1999/xlink" x="0px" y="0px"
	 width="90px" height="90px" viewBox="0 0 90 90" enable-background="new 0 0 90 90" xml:space="preserve">
<g id="Layer_x0020_1">
	<g id="_402211328">
		<polygon fill="#E22227" points="22.404,42.856 4.404,73.525 21.809,74.205 34.706,52.266 		"/>
		<polygon fill="#A93236" points="47.547,57.623 29.547,88.293 20.477,73.412 33.346,51.473 		"/>
		<polygon fill="#E22227" points="41.311,59.381 61.691,88.492 69.571,72.959 54.974,52.096 		"/>
		<polygon fill="#892522" points="65.178,42.657 85.587,71.768 68.268,73.865 53.669,53.004 		"/>
		<path fill="#B3B4B4" d="M43.975,1.782c15.987,0,28.941,12.954,28.941,28.941s-12.954,28.94-28.941,28.94
			c-15.986,0-28.94-12.953-28.94-28.94S27.988,1.782,43.975,1.782z M43.975,8.387c12.331,0,22.337,10.006,22.337,22.337
			c0,12.33-10.006,22.337-22.337,22.337c-12.33,0-22.336-10.007-22.336-22.337C21.639,18.393,31.645,8.387,43.975,8.387z"/>
		<path fill="#FFFFFF" d="M43.975,7.933c12.586,0,22.791,10.205,22.791,22.791c0,12.585-10.205,22.79-22.791,22.79
			c-12.585,0-22.79-10.205-22.79-22.79C21.185,18.138,31.39,7.933,43.975,7.933z M43.975,13.121c9.723,0,17.604,7.88,17.604,17.603
			c0,9.722-7.881,17.603-17.604,17.603s-17.603-7.88-17.603-17.603C26.372,21.001,34.252,13.121,43.975,13.121z"/>
		<path fill="#C6C6C5" d="M43.975,10.343c11.254,0,20.381,9.127,20.381,20.381s-9.127,20.38-20.381,20.38
			c-11.253,0-20.38-9.126-20.38-20.38S32.722,10.343,43.975,10.343z"/>
		<polygon fill="#C0272B" points="30.596,27.18 35.925,25.564 42.048,31.857 57.864,12.327 64.469,12.327 41.878,39.255 		"/>
	</g>
</g>
</svg>
