<?xml version="1.0" ?><!DOCTYPE svg  PUBLIC '-//W3C//DTD SVG 1.1//EN'  'http://www.w3.org/Graphics/SVG/1.1/DTD/svg11.dtd'><svg enable-background="new 0 0 512 512" height="512px" id="Layer_1" version="1.1" viewBox="0 0 512 512" width="512px" xml:space="preserve" xmlns="http://www.w3.org/2000/svg" xmlns:xlink="http://www.w3.org/1999/xlink"><g id="news_x5F_article_x5F_blog"><g><path d="M436.571,110l-4.702-22.042c-3.586-16.739-20.216-27.451-36.955-23.864L180.886,110H436.571z" fill="#333333"/><path d="M54,156.49c0-7.333,1.565-14.274,4.591-20.455l-27.807,5.943c-16.739,3.586-27.396,20.216-23.809,36.955    L54,397.926V156.49z" fill="#333333"/></g><path d="M504,156.125c0-17.19-13.935-31.125-31.125-31.125H100.125C82.935,125,69,138.935,69,156.125v256.749   C69,430.065,82.935,444,100.125,444h372.749c17.19,0,31.125-13.935,31.125-31.125V156.125z M208,165h57v17h-36v19h34v18h-34v22h38   v17h-59V165z M114,165h24.115l19.254,34.1c5.501,9.764,11.002,21.9,15.128,31.9h0.412c-1.375-12-1.909-24.9-1.909-38.79V165h20v93   h-22.629l-19.804-35.852c-5.501-9.902-11.552-21.914-16.09-32.778l-0.357,0.113c0.55,12.24,0.88,25.281,0.88,40.409V258h-19V165z    M261.742,420H119.603c-5.444,0-9.856-4.556-9.856-10s4.413-10,9.856-10h142.139c5.444,0,9.856,4.556,9.856,10   S267.185,420,261.742,420z M261.742,381H119.603c-5.444,0-9.856-4.556-9.856-10s4.413-10,9.856-10h142.139   c5.444,0,9.856,4.556,9.856,10S267.185,381,261.742,381z M261.742,342H119.603c-5.444,0-9.856-4.556-9.856-10s4.413-10,9.856-10   h142.139c5.444,0,9.856,4.556,9.856,10S267.185,342,261.742,342z M261.742,303H119.603c-5.444,0-9.856-4.556-9.856-10   s4.413-10,9.856-10h142.139c5.444,0,9.856,4.556,9.856,10S267.185,303,261.742,303z M298.333,165l7.013,37.956   c2.063,11.002,3.988,23.044,5.502,32.044h0.275c1.513-9,3.713-20.904,6.051-32.319L325.013,165h22.279l7.427,38.988   c2.063,10.864,3.576,21.012,4.95,31.012h0.276c1.375-10,3.438-21.11,5.363-32.112L372.872,165h21.317l-23.93,93h-22.691   l-7.839-39.639C337.94,209.01,336.427,200,335.327,190h-0.275c-1.65,10-3.163,19.01-5.364,28.361L320.887,258h-22.966l-22.004-93   H298.333z M449.531,420H307.392c-5.444,0-9.856-4.556-9.856-10s4.413-10,9.856-10h142.139c5.444,0,9.856,4.556,9.856,10   S454.974,420,449.531,420z M449.531,381H307.392c-5.444,0-9.856-4.556-9.856-10s4.413-10,9.856-10h142.139   c5.444,0,9.856,4.556,9.856,10S454.974,381,449.531,381z M449.531,342H307.392c-5.444,0-9.856-4.556-9.856-10s4.413-10,9.856-10   h142.139c5.444,0,9.856,4.556,9.856,10S454.974,342,449.531,342z M449.531,303H307.392c-5.444,0-9.856-4.556-9.856-10   s4.413-10,9.856-10h142.139c5.444,0,9.856,4.556,9.856,10S454.974,303,449.531,303z M426.646,259.185   c-10.59,0-21.042-2.75-26.268-5.638l4.264-17.328c5.638,2.888,14.303,5.776,23.242,5.776c9.627,0,14.716-3.988,14.716-10.039   c0-5.776-4.401-9.077-15.54-13.065c-15.403-5.363-25.442-13.89-25.442-27.367c0-15.815,13.202-27.917,35.069-27.917   c10.452,0,18.153,2.2,23.655,4.676l-4.676,16.915c-3.713-1.788-10.314-4.4-19.391-4.4c-9.076,0-13.477,4.126-13.477,8.939   c0,5.913,5.226,8.527,17.191,13.065c16.365,6.051,24.066,14.578,24.066,27.643C464.052,245.983,452.088,259.185,426.646,259.185z" fill="#333333"/></g></svg>