<?xml version="1.0" ?><!DOCTYPE svg  PUBLIC '-//W3C//DTD SVG 1.1//EN'  'http://www.w3.org/Graphics/SVG/1.1/DTD/svg11.dtd'><svg height="43.3492mm" style="shape-rendering:geometricPrecision; text-rendering:geometricPrecision; image-rendering:optimizeQuality; fill-rule:evenodd; clip-rule:evenodd" version="1.1" viewBox="0 0 4335 4335" width="43.3492mm" xml:space="preserve" xmlns="http://www.w3.org/2000/svg" xmlns:xlink="http://www.w3.org/1999/xlink"><defs><style type="text/css">
   <![CDATA[
    .fil1 {fill:#882422}
    .fil4 {fill:#B2B3B3}
    .fil0 {fill:#C0252B}
    .fil3 {fill:#D9DADA}
    .fil5 {fill:#FEFEFE}
    .fil2 {fill:#FEFEFE;fill-rule:nonzero}
   ]]>
  </style></defs><g id="Layer_x0020_1"><g id="_400223768"><g><g><path class="fil0" d="M1287 1934l1799 0c127,0 230,103 230,230l0 2029 -319 0 0 -67c0,-75 -61,-136 -136,-136l-276 0 -790 0 -276 0c-75,0 -136,61 -136,136l0 67 -325 0 0 -2029c0,-127 103,-230 230,-230z"/><path class="fil1" d="M1436 2232l1501 0c45,0 81,37 81,81l0 0c0,45 -37,81 -81,81l-1501 0c-45,0 -81,-37 -81,-81l0 0c0,-45 37,-81 81,-81z"/></g><path class="fil2" d="M1519 3238l-125 -349 76 0 89 258 85 -258 75 0 -124 349 -76 0zm316 -172c0,-36 5,-65 16,-90 8,-18 19,-34 32,-48 14,-14 29,-25 45,-31 22,-9 47,-14 75,-14 51,0 92,16 123,48 31,32 46,76 46,133 0,56 -15,101 -46,132 -31,32 -72,48 -123,48 -52,0 -93,-16 -124,-48 -31,-32 -46,-75 -46,-131zm73 -2c0,40 9,69 27,90 18,20 41,31 70,31 28,0 51,-10 69,-30 18,-20 27,-51 27,-91 0,-40 -9,-70 -26,-89 -18,-20 -41,-30 -70,-30 -29,0 -52,10 -70,30 -18,20 -27,50 -27,90zm494 175l0 -290 -103 0 0 -59 276 0 0 59 -103 0 0 290 -71 0zm314 0l0 -349 258 0 0 59 -187 0 0 77 174 0 0 59 -174 0 0 94 194 0 0 59 -265 0z"/></g><path class="fil1" d="M1057 4193l325 0 0 -67 -325 0 0 67zm1934 0l325 0 0 -67 -325 0 0 67z"/><path class="fil3" d="M1536 216l784 0 557 557 58 -7 0 1302c0,54 -44,99 -99,99l-1301 0c-54,0 -99,-44 -99,-99l0 -1753c0,-54 44,-99 99,-99z"/><path class="fil4" d="M2935 774l-517 0c-54,0 -99,-44 -99,-99l0 -459 0 0 615 557z"/><g><path class="fil5" d="M1610 1061l830 0 0 830 -830 0 0 -830zm140 140l550 0 0 550 -550 0 0 -550z"/><polygon class="fil0" points="1679,1335 1840,1286 2025,1476 2503,886 2703,886 2020,1700 "/></g></g></g></svg>