<?xml version="1.0" ?><!DOCTYPE svg  PUBLIC '-//W3C//DTD SVG 1.1//EN'  'http://www.w3.org/Graphics/SVG/1.1/DTD/svg11.dtd'><svg height="43.3492mm" style="shape-rendering:geometricPrecision; text-rendering:geometricPrecision; image-rendering:optimizeQuality; fill-rule:evenodd; clip-rule:evenodd" version="1.1" viewBox="0 0 4335 4335" width="43.3492mm" xml:space="preserve" xmlns="http://www.w3.org/2000/svg" xmlns:xlink="http://www.w3.org/1999/xlink"><defs><style type="text/css">
   <![CDATA[
    .fil1 {fill:#882422}
    .fil0 {fill:#C0252B}
    .fil2 {fill:#FEFEFE;fill-rule:nonzero}
   ]]>
  </style></defs><g id="Layer_x0020_1"><g id="_400751680"><g><g><path class="fil0" d="M622 209l3174 0c223,0 406,183 406,406l0 3580 -563 0 0 -117c0,-132 -108,-241 -241,-241l-487 0 -1395 0 -487 0c-132,0 -241,108 -241,241l0 117 -573 0 0 -3580c0,-223 183,-406 406,-406z"/><path class="fil1" d="M884 734l2649 0c79,0 143,64 143,143l0 0c0,79 -64,143 -143,143l-2649 0c-79,0 -143,-64 -143,-143l0 0c0,-79 64,-143 143,-143z"/></g><path class="fil2" d="M1031 2510l-220 -615 135 0 156 455 150 -455 132 0 -219 615 -134 0zm557 -304c0,-63 9,-115 28,-158 14,-31 33,-60 57,-84 24,-25 51,-43 79,-56 38,-16 83,-24 133,-24 91,0 163,28 218,84 54,56 82,135 82,235 0,100 -27,177 -81,234 -54,56 -126,84 -217,84 -91,0 -164,-28 -218,-84 -54,-56 -81,-133 -81,-231zm128 -4c0,70 16,123 48,159 32,36 73,54 123,54 50,0 90,-18 122,-54 32,-36 48,-89 48,-161 0,-71 -15,-123 -47,-158 -31,-35 -72,-52 -123,-52 -51,0 -93,18 -124,53 -31,35 -47,88 -47,159zm871 308l0 -511 -182 0 0 -104 488 0 0 104 -181 0 0 511 -125 0zm553 0l0 -615 455 0 0 104 -331 0 0 137 308 0 0 104 -308 0 0 167 343 0 0 104 -467 0z"/></g><path class="fil1" d="M216 4195l573 0 0 -117 -573 0 0 117zm3413 0l573 0 0 -117 -573 0 0 117z"/></g></g></svg>